<svg width="480" height="480" viewBox="0 0 409 250" fill="none" xmlns="http://www.w3.org/2000/svg">
<path d="M122.952 148.075C122.952 161.633 120.389 174.394 115.262 186.356C110.135 198.205 103.128 208.573 94.2412 217.46C85.4684 226.233 75.1006 233.183 63.1377 238.31C51.2887 243.437 38.5853 246 25.0273 246C16.8242 246 8.62109 244.975 0.417969 242.924V190.287C4.0638 192.452 7.99447 194.104 12.21 195.243C16.4255 196.382 20.6979 196.952 25.0273 196.952C31.7493 196.952 38.0726 195.699 43.9971 193.192C50.0355 190.572 55.2764 187.04 59.7197 182.597C64.1631 178.153 67.638 172.969 70.1445 167.045C72.765 161.12 74.0752 154.797 74.0752 148.075V0.931641H122.952V148.075ZM408.865 175.932C408.865 186.072 406.928 195.642 403.055 204.643C399.295 213.529 394.054 221.334 387.332 228.056C380.724 234.664 372.92 239.905 363.919 243.778C355.032 247.538 345.519 249.418 335.379 249.418C326.264 249.418 317.492 247.823 309.061 244.633C300.743 241.443 293.224 236.771 286.502 230.619C279.78 236.771 272.203 241.443 263.772 244.633C255.341 247.823 246.569 249.418 237.454 249.418C227.314 249.418 217.744 247.538 208.743 243.778C199.856 239.905 192.052 234.664 185.33 228.056C178.722 221.334 173.481 213.529 169.607 204.643C165.848 195.642 163.968 186.072 163.968 175.932V0.931641H213.016V175.932C213.016 179.35 213.642 182.597 214.896 185.673C216.149 188.635 217.858 191.256 220.022 193.534C222.301 195.699 224.922 197.408 227.884 198.661C230.846 199.914 234.036 200.541 237.454 200.541C240.872 200.541 244.062 199.914 247.024 198.661C249.987 197.408 252.55 195.699 254.715 193.534C256.993 191.256 258.759 188.635 260.013 185.673C261.266 182.597 261.893 179.35 261.893 175.932V0.931641H310.94V175.932C310.94 179.35 311.567 182.597 312.82 185.673C314.074 188.635 315.783 191.256 317.947 193.534C320.226 195.699 322.846 197.408 325.809 198.661C328.771 199.914 331.961 200.541 335.379 200.541C338.797 200.541 341.987 199.914 344.949 198.661C347.911 197.408 350.475 195.699 352.64 193.534C354.918 191.256 356.684 188.635 357.938 185.673C359.305 182.597 359.988 179.35 359.988 175.932V0.931641H408.865V175.932Z" fill="#F5F5F5"/>
</svg>
